<svg xmlns="http://www.w3.org/2000/svg" viewBox="0 0 659.6 500"><defs><style>.cls-1{fill:#5865f2;}</style></defs><g id="Layer_2" data-name="Layer 2"><g id="svg22"><path id="path2-2" class="cls-1" d="M559.2,42A543.92,543.92,0,0,0,422.87,0a344.91,344.91,0,0,0-17.34,35.33,521.39,521.39,0,0,0-151,0c-4.67-11-11.67-25-17.34-35.33A536.13,536.13,0,0,0,100.8,42C14.47,169.33-8.87,293.67,2.8,416.33c57.33,41.67,112.67,67,167,83.67a405.59,405.59,0,0,0,35.67-57.67,349.06,349.06,0,0,1-56.33-27c4.66-3.33,9.33-7,13.66-10.66,108.67,49.66,226.37,49.66,333.7,0,4.67,3.66,9,7.33,13.67,10.66a349.16,349.16,0,0,1-56.34,27A407.41,407.41,0,0,0,489.53,500a552.56,552.56,0,0,0,167-83.67C670.9,274.33,633.86,151,559.2,42ZM220.5,340.67c-32.67,0-59.33-29.67-59.33-66s26-66,59.33-66c33,0,60,29.66,59.33,66C279.83,311,253.5,340.67,220.5,340.67Zm219,0c-32.67,0-59.37-29.67-59.37-66s26-66,59.37-66c33,0,60,29.66,59.33,66C498.86,311,472.87,340.67,439.53,340.67Z"/></g></g></svg>