<svg xmlns="http://www.w3.org/2000/svg" xmlns:xlink="http://www.w3.org/1999/xlink" viewBox="0 0 608.64 421.89"><defs><style>.cls-1{fill:none;}.cls-2{clip-path:url(#clip-path);}.cls-3{fill:#294287;}.cls-4{fill:url(#linear-gradient);}</style><clipPath id="clip-path" transform="translate(-15.48 -27.44)"><polygon class="cls-1" points="0 32.69 24.49 500 648.31 467.31 623.81 0 0 32.69"/></clipPath><linearGradient id="linear-gradient" x1="-2999.21" y1="688.66" x2="-2998.77" y2="688.66" gradientTransform="translate(1734264.34 -494607.62) rotate(-3) scale(586.02)" gradientUnits="userSpaceOnUse"><stop offset="0" stop-color="#ab8333"/><stop offset="0.27" stop-color="#d1b971"/><stop offset="0.49" stop-color="#f4dc98"/><stop offset="0.75" stop-color="#d1b971"/><stop offset="1" stop-color="#ab8333"/></linearGradient></defs><g id="Layer_2" data-name="Layer 2"><g id="svg1726"><g id="layer1"><g id="g524"><g class="cls-2"><g id="g526"><g id="g532"><path id="path534" class="cls-3" d="M295.38,246.27c-29.86,0-45.9-19.27-47.46-46.78-2.6-45.51,33.4-101.15,87.8-104.12,1.39-.07,2.75-.11,4.09-.11,32,0,45.75,21.33,47.34,46.31,2.62,50-36.28,101.88-87.79,104.58-1.36.08-2.68.12-4,.12M337,102.73l-1.18,0c-29.1,1.53-62.1,51.1-59.67,100.52,1.13,23.22,9,35.43,23.52,35.43l1.37,0c32.62-1.7,61.35-57.86,58.79-101.82-1.15-20.39-8.23-34.13-22.83-34.13" transform="translate(-15.48 -27.44)"/></g><g id="g536"><path id="path538" class="cls-3" d="M550.45,233.05c-32,0-43.24-20.32-47.24-35-12.71-46.25,20.47-107.26,77.3-115.87a63.63,63.63,0,0,1,9.54-.74c18,0,29.29,8.52,32.61,18,7.49,21.31-12.22,54.35-93.36,72.73-1.41,25.71,7.67,50.3,28.63,51.63.67,0,1.35.06,2,.06,20.73,0,38.27-20.23,44.32-28.25,2.71-3.59,4.71-5.13,5.86-5.13,2.09,0,1.39,5.07-2.89,12.2a66.81,66.81,0,0,1-52.58,30.23c-1.44.07-2.83.11-4.2.11M581.27,88.76a19.21,19.21,0,0,0-3.68.37c-7.82,1.48-17.53,8-24.36,16.51-8.88,10.69-20.25,29.18-23.61,59.09,77.83-17.73,77.79-76,51.65-76" transform="translate(-15.48 -27.44)"/></g><g id="g540"><path id="path542" class="cls-3" d="M20.5,260.66c-8.13,0-5.27-3.68.75-15.78,6.46-13,19.18-49.77,38.07-108.73C78,77.87,114,63.93,118.18,62c3-1.35,10.18-3.27,13.8-3.27,2.15,0,3,.68,1,2.56-15.89,15-31.19,36.47-47.18,91.78-15.11,52.28-29.08,88.39-36.48,97l.06.15s2,.06,5.5.06c11.82,0,40.63-.7,66.54-6.8,33.82-7.95,68.36-24.72,83.09-82.65C219,104,191.31,56.75,143.47,42.48a123.4,123.4,0,0,0-35.32-5.23c-31.84,0-57.23,12.75-69,24.13C32.34,67.94,29.23,75,27.43,77c-.35.39-.63.56-.85.56-.64,0-.77-1.5-.86-3.49-.34-8.67,17.14-43.26,74.51-46.44,2.17-.13,4.36-.18,6.58-.18,58,0,135.67,40.64,132.5,119.13-3.39,84.08-78,103.34-117.6,107.92-20.33,2.33-45.66,3.3-99.21,6.1l4.63-.23-4.66.24c-.72,0-1.37.06-2,.06m2-.07h0" transform="translate(-15.48 -27.44)"/></g><g id="g544"><path id="path546" class="cls-3" d="M408.3,240.73a1.75,1.75,0,0,1-1-.24c-3.7-2.61.73-38.28-2.8-80.82S392,108.08,388.93,98.32c-.64-2,.62-2.25,1.23-2.25h.31v0c.63.06,24.65,3.22,34.27,26,10.33,24.47,8.19,71.83,7.14,88.06l.07.05c33.3-30.65,50.84-72.47,53.05-92.92s-1.78-27.14.44-28.22a1,1,0,0,1,.44-.09c3,0,14.16,9,14.23,23.61,0,6.77-2.41,31.32-32,71.88-28.08,38.49-53.65,56.29-59.83,56.29" transform="translate(-15.48 -27.44)"/></g></g></g></g><g id="g548"><g id="g550"><g id="g556"><g id="g558"><path id="path572" class="cls-4" d="M349.07,323.85c-8.81.44-18.69,3.56-28.21,10h0c-38,25.93-64,38.5-92.33,39.19h0l-1.81-.08-1.51.22a.35.35,0,0,0,0,.13h0c0,1.13,4.3,3.39,4.3,3.39h0c2,1.34,23.52,12.88,50.33,15.3h0c12.22,1.08,21.27.74,27.75-.44h0q1.68-.3,3.15-.69h0c1.49-.4,2.63-.67,3.53-.82h0a10.59,10.59,0,0,1,1.76-.18h0c1.15,0,1.38.36,1.59.68h0a1.37,1.37,0,0,1,.21.77h0c0,.88-.81,2.2-4.22,3.77h0c-6.84,3.17-13.25,4.67-20.83,6.18h0C279.37,404,263,405,247.51,405h0a334.28,334.28,0,0,1-42.07-2.49h0c-1.54-.21-3-.42-4.25-.65h0c-4.3-.73-7.5-1.23-8.94-1.48h0l-1.1,0-.36.7,2.34,1.85c182.93,107.7,218-2.88,228.59-24.7h0c10.61-21.82,16-26.87,24.1-29.78h0c1.3-.49,2.54-.72,2.55-1.62h0v-.09h0l-1.31-1.12-5.52-3.35A32,32,0,0,0,426,336.18h0c-.75-.07-1.51-.1-2.25-.1h0A28.36,28.36,0,0,0,412,338.76h0l-.3.14h0c-7.69,3.56-14.87,10.22-21.68,18.33h0c-8.83,10.52-13.87,14.22-15.81,14.22h0c-.67,0-1-.45-.92-1.2h0a8,8,0,0,1,1.15-3.05h0c4.45-7.35,6-13.6,6-18.75h0a23.2,23.2,0,0,0-9.24-18.56h0c-4.8-3.88-11.79-6.12-19.81-6.12h0c-.76,0-1.53,0-2.32.08" transform="translate(-15.48 -27.44)"/></g></g></g></g></g></g></g></svg>