<?xml version="1.0" encoding="UTF-8" standalone="no"?>
<!-- Created with Inkscape (http://www.inkscape.org/) -->

<svg
   xmlns:dc="http://purl.org/dc/elements/1.1/"
   xmlns:cc="http://creativecommons.org/ns#"
   xmlns:rdf="http://www.w3.org/1999/02/22-rdf-syntax-ns#"
   xmlns:svg="http://www.w3.org/2000/svg"
   xmlns="http://www.w3.org/2000/svg"
   xmlns:sodipodi="http://sodipodi.sourceforge.net/DTD/sodipodi-0.dtd"
   xmlns:inkscape="http://www.inkscape.org/namespaces/inkscape"
   width="700mm"
   height="700mm"
   viewBox="0 0 700 700"
   version="1.1"
   id="svg1726"
   inkscape:version="0.92.3 (2405546, 2018-03-11)"
   sodipodi:docname="dove-logo.svg"
   inkscape:export-filename="C:\Users\alex\sites\dove-logo-0.png"
   inkscape:export-xdpi="148.6263"
   inkscape:export-ydpi="148.6263">
  <defs
     id="defs1720">
    <linearGradient
       x1="0"
       y1="0"
       x2="1"
       y2="0"
       gradientUnits="userSpaceOnUse"
       gradientTransform="matrix(31.724594,1.6625977,-1.6625977,31.724594,135.36816,410.66187)"
       spreadMethod="pad"
       id="linearGradient570">
      <stop
         style="stop-opacity:1;stop-color:#ab8333"
         offset="0"
         id="stop560" />
      <stop
         style="stop-opacity:1;stop-color:#d1b971"
         offset="0.269943"
         id="stop562" />
      <stop
         style="stop-opacity:1;stop-color:#f4dc98"
         offset="0.490799"
         id="stop564" />
      <stop
         style="stop-opacity:1;stop-color:#d1b971"
         offset="0.748459"
         id="stop566" />
      <stop
         style="stop-opacity:1;stop-color:#ab8333"
         offset="1"
         id="stop568" />
    </linearGradient>
    <clipPath
       clipPathUnits="userSpaceOnUse"
       id="clipPath530">
      <path
         d="m 111.918,458.468 2.991,-57.079 76.196,3.993 -2.992,57.079 z"
         id="path528"
         inkscape:connector-curvature="0" />
    </clipPath>
  </defs>
  <sodipodi:namedview
     id="base"
     pagecolor="#ffffff"
     bordercolor="#666666"
     borderopacity="1.0"
     inkscape:pageopacity="0.0"
     inkscape:pageshadow="2"
     inkscape:zoom="0.0875"
     inkscape:cx="-1069.7378"
     inkscape:cy="630.03378"
     inkscape:document-units="mm"
     inkscape:current-layer="layer1"
     showgrid="false"
     inkscape:window-width="1600"
     inkscape:window-height="838"
     inkscape:window-x="-8"
     inkscape:window-y="-8"
     inkscape:window-maximized="1" />
  <metadata
     id="metadata1723">
    <rdf:RDF>
      <cc:Work
         rdf:about="">
        <dc:format>image/svg+xml</dc:format>
        <dc:type
           rdf:resource="http://purl.org/dc/dcmitype/StillImage" />
        <dc:title></dc:title>
      </cc:Work>
    </rdf:RDF>
  </metadata>
  <g
     inkscape:label="Camada 1"
     inkscape:groupmode="layer"
     id="layer1"
     transform="translate(0,403)">
    <g
       transform="matrix(6.5076341,0,0,-6.5076341,-632.52533,2767.0436)"
       id="g524"
       inkscape:export-filename="C:\Users\alex\sites\dove-logo-4.png"
       inkscape:export-xdpi="21.000774"
       inkscape:export-ydpi="21.000774">
      <g
         id="g526"
         clip-path="url(#clipPath530)">
        <g
           id="g532"
           transform="translate(147.9972,432.3809)">
          <path
             d="m 0,0 c -3.647,0.001 -5.607,2.354 -5.797,5.713 -0.318,5.559 4.079,12.356 10.724,12.718 0.17,0.009 0.336,0.014 0.499,0.014 3.907,0 5.589,-2.606 5.783,-5.657 C 11.529,6.682 6.777,0.344 0.486,0.014 0.32,0.005 0.159,0 0,0 M 5.085,17.532 C 5.037,17.532 4.989,17.531 4.94,17.528 1.386,17.342 -2.645,11.287 -2.348,5.251 -2.21,2.414 -1.247,0.923 0.525,0.923 c 0.055,0 0.111,0.001 0.167,0.004 3.984,0.208 7.494,7.067 7.181,12.436 -0.14,2.491 -1.005,4.169 -2.788,4.169"
             style="fill:#294287;fill-opacity:1;fill-rule:nonzero;stroke:none"
             id="path534"
             inkscape:connector-curvature="0" />
        </g>
        <g
           id="g536"
           transform="translate(179.1522,433.9949)">
          <path
             d="m 0,0 c -3.912,0 -5.281,2.483 -5.77,4.269 -1.552,5.65 2.5,13.101 9.442,14.153 0.411,0.063 0.799,0.091 1.165,0.091 2.195,0 3.578,-1.041 3.983,-2.196 C 9.735,13.714 7.328,9.678 -2.583,7.433 -2.755,4.293 -1.646,1.289 0.914,1.127 0.996,1.121 1.078,1.119 1.159,1.119 c 2.532,0 4.674,2.471 5.414,3.451 0.331,0.438 0.575,0.627 0.715,0.627 0.255,0 0.17,-0.62 -0.353,-1.491 C 6.822,3.513 4.82,0.239 0.513,0.014 0.337,0.005 0.167,0 0,0 M 3.764,17.624 C 3.621,17.624 3.471,17.61 3.315,17.58 2.36,17.399 1.174,16.606 0.34,15.563 -0.745,14.257 -2.134,11.999 -2.544,8.345 c 9.506,2.166 9.501,9.279 6.308,9.279"
             style="fill:#294287;fill-opacity:1;fill-rule:nonzero;stroke:none"
             id="path538"
             inkscape:connector-curvature="0" />
        </g>
        <g
           id="g540"
           transform="translate(114.4221,430.6229)">
          <path
             d="m 0,0 c -0.993,0 -0.644,0.45 0.091,1.928 0.789,1.586 2.343,6.079 4.65,13.28 2.281,7.119 6.677,8.822 7.19,9.053 0.364,0.165 1.243,0.4 1.685,0.4 0.263,0 0.371,-0.083 0.128,-0.313 C 11.803,22.515 9.934,19.894 7.981,13.138 6.135,6.752 4.429,2.341 3.525,1.287 L 3.532,1.269 c 0,0 0.245,-0.007 0.672,-0.007 1.444,0 4.963,0.085 8.128,0.83 4.13,0.972 8.349,3.02 10.148,10.096 1.765,6.946 -1.617,12.718 -7.46,14.461 -1.509,0.45 -2.959,0.639 -4.314,0.639 -3.889,0 -6.991,-1.557 -8.429,-2.947 C 1.446,23.54 1.066,22.678 0.846,22.434 0.803,22.387 0.769,22.366 0.742,22.366 c -0.078,0 -0.094,0.183 -0.104,0.426 -0.042,1.059 2.093,5.284 9.101,5.673 0.264,0.015 0.532,0.022 0.803,0.022 7.079,0 16.572,-4.964 16.184,-14.552 C 26.312,3.665 17.203,1.313 12.362,0.754 9.879,0.469 6.785,0.351 0.244,0.008 0.284,0.011 0.804,0.037 0.81,0.037 0.812,0.037 0.672,0.03 0.24,0.007 0.152,0.003 0.073,0 0,0 M 0.243,0.008 H 0.241 0.243"
             style="fill:#294287;fill-opacity:1;fill-rule:nonzero;stroke:none"
             id="path542"
             inkscape:connector-curvature="0" />
        </g>
        <g
           id="g544"
           transform="translate(161.7892,433.0569)">
          <path
             d="m 0,0 c -0.052,0 -0.092,0.01 -0.121,0.03 -0.452,0.318 0.089,4.675 -0.342,9.871 -0.43,5.198 -1.527,6.302 -1.903,7.494 -0.078,0.247 0.076,0.275 0.151,0.275 0.022,0 0.037,-0.002 0.037,-0.002 l 10e-4,-0.003 C -2.1,17.658 0.835,17.272 2.01,14.494 3.271,11.505 3.01,5.72 2.881,3.738 L 2.89,3.732 c 4.068,3.743 6.21,8.852 6.48,11.35 0.271,2.499 -0.217,3.315 0.054,3.447 0.014,0.007 0.032,0.011 0.053,0.011 0.372,0 1.73,-1.105 1.738,-2.885 C 11.219,14.829 10.921,11.83 7.308,6.876 3.878,2.174 0.755,0 0,0"
             style="fill:#294287;fill-opacity:1;fill-rule:nonzero;stroke:none"
             id="path546"
             inkscape:connector-curvature="0" />
        </g>
      </g>
    </g>
    <g
       transform="matrix(6.5076341,0,0,-6.5076341,-632.52533,2767.0436)"
       id="g548"
       inkscape:export-filename="C:\Users\alex\sites\dove-logo-4.png"
       inkscape:export-xdpi="21.000774"
       inkscape:export-ydpi="21.000774">
      <g
         id="g550">
        <g
           id="g556">
          <g
             id="g558">
            <path
               d="m 154.555,422.905 c -1.076,-0.054 -2.283,-0.435 -3.446,-1.228 v 0 c -4.643,-3.167 -7.815,-4.702 -11.277,-4.787 v 0 l -0.222,0.01 -0.184,-0.027 c -0.002,-0.006 -0.003,-0.011 -0.003,-0.016 v 0 c -0.004,-0.138 0.525,-0.414 0.525,-0.414 v 0 c 0.244,-0.163 2.873,-1.573 6.147,-1.868 v 0 c 1.493,-0.132 2.598,-0.091 3.39,0.053 v 0 c 0.137,0.025 0.265,0.053 0.384,0.084 v 0 c 0.182,0.049 0.322,0.082 0.431,0.101 v 0 c 0.093,0.016 0.162,0.022 0.216,0.022 v 0 c 0.14,0 0.168,-0.044 0.194,-0.084 v 0 c 0.014,-0.024 0.026,-0.055 0.025,-0.094 v 0 c -0.001,-0.107 -0.099,-0.268 -0.515,-0.46 v 0 c -0.836,-0.387 -1.619,-0.571 -2.544,-0.755 v 0 c -1.635,-0.326 -3.63,-0.447 -5.526,-0.447 v 0 c -2,0 -3.893,0.135 -5.139,0.304 v 0 c -0.188,0.026 -0.361,0.052 -0.519,0.079 v 0 c -0.525,0.09 -0.916,0.151 -1.092,0.181 v 0 l -0.134,-0.002 -0.044,-0.085 0.286,-0.226 c 22.344,-13.156 26.626,0.351 27.92,3.016 v 0 c 1.296,2.665 1.951,3.283 2.944,3.638 v 0 c 0.159,0.06 0.311,0.088 0.312,0.198 v 0 c 0,0.004 0,0.008 0,0.011 v 0 l -0.16,0.137 -0.674,0.409 c -0.656,0.457 -1.288,0.69 -1.895,0.744 v 0 c -0.092,0.008 -0.184,0.012 -0.275,0.012 v 0 c -0.494,0 -0.973,-0.117 -1.437,-0.327 v 0 c -0.001,-10e-4 -0.001,-10e-4 -0.002,-10e-4 v 0 c -0.012,-0.005 -0.024,-0.012 -0.036,-0.017 v 0 c -0.939,-0.435 -1.817,-1.248 -2.648,-2.238 v 0 c -1.079,-1.286 -1.695,-1.737 -1.931,-1.737 v 0 c -0.082,0 -0.118,0.055 -0.113,0.146 v 0 c 0.007,0.092 0.054,0.222 0.141,0.373 v 0 c 0.543,0.898 0.732,1.661 0.732,2.29 v 0 c -0.005,1.521 -1.128,2.267 -1.128,2.267 v 0 c -0.587,0.474 -1.44,0.747 -2.42,0.747 v 0 c -0.093,0 -0.187,-0.002 -0.283,-0.009"
               style="fill:url(#linearGradient570);stroke:none"
               id="path572"
               inkscape:connector-curvature="0" />
          </g>
        </g>
      </g>
    </g>
  </g>
</svg>
