<?xml version="1.0" encoding="UTF-8" standalone="no"?>
<svg
   xmlns:dc="http://purl.org/dc/elements/1.1/"
   xmlns:cc="http://creativecommons.org/ns#"
   xmlns:rdf="http://www.w3.org/1999/02/22-rdf-syntax-ns#"
   xmlns:svg="http://www.w3.org/2000/svg"
   xmlns="http://www.w3.org/2000/svg"
   xmlns:sodipodi="http://sodipodi.sourceforge.net/DTD/sodipodi-0.dtd"
   xmlns:inkscape="http://www.inkscape.org/namespaces/inkscape"
   version="1.1"
   viewBox="0 0 700 700"
   id="svg4"
   sodipodi:docname="ios-logo.svg"
   width="700"
   height="700"
   inkscape:version="0.92.4 (5da689c313, 2019-01-14)"
   inkscape:export-filename="C:\Users\suitedoalex\sites\ios-logo-0.png"
   inkscape:export-xdpi="561.73712"
   inkscape:export-ydpi="561.73712">
  <metadata
     id="metadata10">
    <rdf:RDF>
      <cc:Work
         rdf:about="">
        <dc:format>image/svg+xml</dc:format>
        <dc:type
           rdf:resource="http://purl.org/dc/dcmitype/StillImage" />
        <dc:title></dc:title>
      </cc:Work>
    </rdf:RDF>
  </metadata>
  <defs
     id="defs8" />
  <sodipodi:namedview
     pagecolor="#ffffff"
     bordercolor="#666666"
     borderopacity="1"
     objecttolerance="10"
     gridtolerance="10"
     guidetolerance="10"
     inkscape:pageopacity="0"
     inkscape:pageshadow="2"
     inkscape:window-width="1600"
     inkscape:window-height="837"
     id="namedview6"
     showgrid="false"
     inkscape:zoom="0.23545467"
     inkscape:cx="658.59235"
     inkscape:cy="213.93221"
     inkscape:window-x="-8"
     inkscape:window-y="-8"
     inkscape:window-maximized="1"
     inkscape:current-layer="svg4" />
  <path
     d="m 111.86101,465.4326 h 39.7553 V 296.1949 h -39.7553 z M 131.65896,274.001 c 12.45352,0 22.19268,-9.5798 22.19268,-21.5538 0,-12.1343 -9.73916,-21.7137 -22.19268,-21.7137 -12.29371,0 -22.03287,9.5798 -22.03287,21.7137 0,11.9745 9.73916,21.5538 22.03287,21.5538 z m 152.3205,-42.7897 c -67.21525,0 -109.36732,45.8225 -109.36732,119.1073 0,73.2849 42.14798,118.9479 109.36732,118.9479 67.05584,0 109.20792,-45.663 109.20792,-118.9479 0,-73.2848 -42.14799,-119.1073 -109.20792,-119.1073 z m 0,35.1252 c 41.03216,0 67.21525,32.5707 67.21525,83.9813 0,51.2503 -26.18391,83.8218 -67.21525,83.8218 -41.19156,0 -67.21525,-32.5706 -67.21525,-83.8218 0,-51.4098 26.0245,-83.9813 67.21525,-83.9813 z m 125.97801,134.2752 c 1.75626,42.4709 36.56191,68.654 89.56856,68.654 55.72183,0 90.84788,-27.4616 90.84788,-71.2085 0,-34.3266 -19.79795,-53.6455 -66.57763,-64.3419 l -26.50353,-6.0672 c -28.25983,-6.7056 -39.9147,-15.6465 -39.9147,-30.9737 0,-19.1592 17.56262,-31.9319 43.58671,-31.9319 26.34372,0 44.38373,12.9326 46.30066,34.4864 h 39.27626 c -0.95798,-40.5535 -34.48639,-68.0164 -85.25648,-68.0164 -50.13452,0 -85.73878,27.621 -85.73878,68.4946 0,32.8899 20.11716,53.3267 62.58437,63.0667 l 29.85632,7.0252 c 29.05808,6.8654 40.87275,16.4447 40.87275,33.0493 0,19.1591 -19.31891,32.8899 -47.09767,32.8899 -28.10002,0 -49.33343,-13.8902 -51.88797,-35.1252 h -39.91471 z"
     id="path2"
     inkscape:connector-curvature="0"
     style="stroke-width:4.08727551"
     inkscape:export-filename="C:\Users\suitedoalex\sites\ios-logo-5.png"
     inkscape:export-xdpi="139.78223"
     inkscape:export-ydpi="139.78223" />
  <path
     style="clip-rule:evenodd;fill:#000000;fill-opacity:1;fill-rule:evenodd;stroke-width:30.23510551"
     d="m 259.29492,808.89096 c -83.49194,0 -151.17578,67.68381 -151.17578,151.17578 v 181.41016 c 0,83.4921 67.68384,151.1758 151.17578,151.1758 h 181.41016 c 83.49194,0 151.17578,-67.6837 151.17578,-151.1758 V 960.06674 c 0,-83.49197 -67.68384,-151.17578 -151.17578,-151.17578 z m -74.5918,151.58984 c 9.428,0 16.80274,7.25115 16.80274,16.4375 0,9.065 -7.37474,16.31836 -16.80274,16.31836 -9.307,0 -16.67968,-7.25306 -16.67968,-16.31836 0,-9.18595 7.37268,-16.4375 16.67968,-16.4375 z m 115.31641,0.36133 c 50.76805,-10e-6 82.67578,34.69128 82.67578,90.17187 0,55.4806 -31.91082,90.0488 -82.67578,90.0488 -50.88873,0 -82.79687,-34.5682 -82.79687,-90.0488 0,-55.48058 31.91123,-90.17187 82.79687,-90.17187 z m 164.51172,0.002 c 38.43575,0 63.81772,20.79088 64.54297,51.49217 h -29.73438 c -1.45122,-16.3175 -15.10714,-26.10936 -35.05078,-26.10936 -19.70167,0 -32.99804,9.66923 -32.99804,24.17386 0,11.6035 8.82254,18.3727 30.21679,23.4492 l 20.06641,4.5937 c 35.4148,8.0977 50.40234,22.7219 50.40234,48.709 0,33.1188 -26.59285,53.9102 -68.77734,53.9102 -40.12895,0 -66.47901,-19.8218 -67.8086,-51.9746 h 0.002 30.2168 c 1.93394,16.0761 18.00994,26.5918 39.2832,26.5918 21.03004,0 35.6543,-10.3939 35.6543,-24.8985 -10e-6,-12.5705 -8.94284,-19.824 -30.94141,-25.0215 l -22.60352,-5.3183 c -32.15,-7.3737 -47.3789,-22.8447 -47.3789,-47.7442 0,-30.94346 26.95361,-51.85347 64.9082,-51.85347 z m -164.51172,26.58984 c -31.18366,0 -50.88672,24.65813 -50.88672,63.57813 0,38.7998 19.70244,63.457 50.88672,63.457 31.06298,0 50.88477,-24.6578 50.88477,-63.457 0,-38.9206 -19.82117,-63.57813 -50.88477,-63.57813 z m -130.30469,22.60543 h 30.09766 v 128.1211 h -30.09766 z"
     id="path2-8"
     inkscape:connector-curvature="0"
     inkscape:export-filename="C:\Users\suitedoalex\sites\ios-logo-4.png"
     inkscape:export-xdpi="138.91136"
     inkscape:export-ydpi="138.91136" />
</svg>
