<svg xmlns="http://www.w3.org/2000/svg" viewBox="0 0 1007.72 500"><defs><style>.cls-1{fill:#fff;}</style></defs><g id="Layer_2" data-name="Layer 2"><g id="svg4"><path id="path2" class="cls-1" d="M4.68,492H88V137.22H4.68ZM46.18,90.7c26.11,0,46.52-20.09,46.52-45.18C92.7,20.08,72.29,0,46.18,0,20.41,0,0,20.08,0,45.52,0,70.62,20.41,90.7,46.18,90.7ZM365.47,1C224.58,1,136.22,97.05,136.22,250.67S224.57,500,365.47,500C506,500,594.39,404.28,594.39,250.67S506,1,365.47,1Zm0,73.63c86,0,140.89,68.27,140.89,176,0,107.42-54.88,175.7-140.89,175.7-86.34,0-140.89-68.27-140.89-175.7C224.58,142.9,279.13,74.63,365.47,74.63ZM629.54,356.09c3.68,89,76.64,143.91,187.75,143.91,116.8,0,190.43-57.57,190.43-149.27,0-72-41.5-112.44-139.56-134.87l-55.55-12.71c-59.24-14.06-83.67-32.8-83.67-64.93,0-40.16,36.81-66.93,91.36-66.93,55.22,0,93,27.11,97.06,72.29h82.32C997.68,58.57,927.4,1,821,1,715.89,1,641.25,58.9,641.25,144.58c0,68.94,42.17,111.78,131.19,132.2L835,291.5c60.91,14.39,85.68,34.47,85.68,69.28,0,40.16-40.5,68.94-98.73,68.94-58.9,0-103.41-29.12-108.76-73.63Z"/></g></g></svg>