<svg xmlns="http://www.w3.org/2000/svg" viewBox="0 0 2497.13 308"><defs><style>.cls-1{fill:#ebf0ee;}</style></defs><g id="Layer_2" data-name="Layer 2"><g id="Layer_1-2" data-name="Layer 1"><path class="cls-1" d="M582.11,113.71H371.26l-7.54,6V307.25h58V236.46l5.27-5.27H582.11c39.16,0,57.23-10.54,57.23-37.65V150.61c0-26.36-18.07-36.9-57.23-36.9m0,69.28c0,12.8-8.28,15.06-27.11,15.06H427.73l-6-5.27V152.87L427,147.6H555c18.07,0,27.11,2.26,27.11,15.06ZM746.28,149.1l50.45,73.8-3,6.78H682.27l-28.62,35.4H819.32l12,6.77L857,307.25h67L777.15,111.45m634.07,158.14V216.88l6-5.27h112.21V178.47H1351.73V307.25H1613.8V274.11H1418m-66.27-160.4h264.33v36.15H1351.73Zm-294.44,34.64H1270.4c-3-27.11-20.33-34.64-62.5-34.64H1055c-48.2,0-63.26,9-63.26,45.94V262.06c0,36.15,15.07,45.94,63.26,45.94H1207.9c42.92,0,59.49-8.28,61-36.15H1057.29l-6-6v-113M220.64,189H66.27l-4.52-5.27V150.61l4.52-3.76H274.86l3-6.78C271.1,122,252.27,113,218.38,113H73.05c-48.2,0-63.26,9-63.26,45.93v21.84c0,36.15,15.06,45.94,63.26,45.94H227.42l4.52,4.52v34.64l-3.77,5.27H5.27S0,274.11,0,274.87c3.76,25.6,21.09,32.38,62.5,32.38H220.65c48.19,0,64-9,64-45.94V235c0-36.14-15.82-45.93-64-45.93M1782.48,113h-87.35l-4.52,9L1787,192.78c18.07-10.54,38.4-21.08,59.49-31.63m14.31,84.35,85.09,61.75h87.36L2037,299,1910.5,206.34c-16.57,12.8-33.89,25.6-49.7,39.16"/><path class="cls-1" d="M1769.68,307.25h-79.07l-6.78-10.55c53.47-52,292.94-273.36,813.3-296.7,0,0-436,15.06-727.45,307.25"/></g></g></svg>