<svg xmlns="http://www.w3.org/2000/svg" viewBox="0 0 690 621.02"><g id="Layer_2" data-name="Layer 2"><g id="Layer_1-2" data-name="Layer 1"><path d="M149.5,149.5h92a11.5,11.5,0,0,0,0-23h-92a11.5,11.5,0,0,0,0,23Z"/><path d="M149.5,207H299a11.5,11.5,0,0,0,0-23H149.5a11.5,11.5,0,0,0,0,23Z"/><path d="M149.5,264.51h92a11.51,11.51,0,0,0,0-23h-92a11.51,11.51,0,0,0,0,23Z"/><path d="M299,299H149.5a11.5,11.5,0,0,0,0,23H299a11.5,11.5,0,0,0,0-23Z"/><path d="M299,368a11.49,11.49,0,0,0-11.5-11.5h-138a11.5,11.5,0,0,0,0,23h138A11.51,11.51,0,0,0,299,368Z"/><path d="M676.63,34.66a443.52,443.52,0,0,0-113.12,34.1A59.26,59.26,0,0,0,506,0H57.5A57.56,57.56,0,0,0,0,57.5v92A11.49,11.49,0,0,0,11.5,161H69V557.77A63.33,63.33,0,0,0,132.25,621H552a11.22,11.22,0,0,0,6.29-2.13A80,80,0,0,0,621,540.52v-69a11.49,11.49,0,0,0-11.5-11.5h-46V272.48l3.07-7.7,4.73,6.3h0a11.53,11.53,0,0,0,17.86.66c77.31-88.53,99.76-218.36,100.68-223.84a11.56,11.56,0,0,0-13.22-13.24ZM69,138H23V57.5A34.52,34.52,0,0,1,57.5,23H69ZM172.5,472.09v85.67a40.25,40.25,0,1,1-80.5,0V23H506a34.53,34.53,0,0,1,34.5,34.5V80.4A366.06,366.06,0,0,0,506,101.64a11.49,11.49,0,0,0-4,14l9.59,22.4c-6.11.6-21.14-2.18-25.43,3.6-6.81-4.6-15.49-12.23-23.26-4.67a371.05,371.05,0,0,0-105.09,188.3A319.49,319.49,0,0,1,318,345.74,11.54,11.54,0,0,0,322,368c8.81-1.55,15.94-5.34,47.1-22.56A217.51,217.51,0,0,0,523,326c7.32-3.33,5.93-13.37,6-19.87h0a28.31,28.31,0,0,0,11.5,4.28V460H184a12,12,0,0,0-11.5,12.07ZM598,483v57.5a57.18,57.18,0,0,1-48.1,56.66,51.19,51.19,0,0,1-9.4.84H181a62.93,62.93,0,0,0,14.5-40.25V483ZM581,245.62l-8.26-11a11.58,11.58,0,0,0-19.88,2.63c-4.3,10.77-14.15,35.36-18.35,45.89l-11.83-5.91h0A11.59,11.59,0,0,0,506,287.51V309a188.54,188.54,0,0,1-107.38,18.08A1048.67,1048.67,0,0,0,560.14,192.14a11.51,11.51,0,0,0-16.27-16.27A1024.08,1024.08,0,0,1,385.92,307.66,354.87,354.87,0,0,1,472.25,160l15.87,10.59A11.58,11.58,0,0,0,506,161h23a11.59,11.59,0,0,0,10.58-16l-12.73-29.71h0A387.78,387.78,0,0,1,663.77,60.41c-8.07,35.22-31.71,120.42-82.8,185.2Z"/></g></g></svg>