<svg xmlns="http://www.w3.org/2000/svg" viewBox="0 0 546.07 521.23"><defs><style>.cls-1{fill:#010101;}</style></defs><g id="Layer_2" data-name="Layer 2"><g id="Layer_1-2" data-name="Layer 1"><path class="cls-1" d="M274.16,23.33C261.15-37.92,213.9,38,132,62.6,47.54,88.08-16,29.13,3.56,99.68,45,248.32,142.14,335.6,209,314.16c5.25-1.64,19.69-4.82,24.61-7.11,4.16-35.11,12.25-73.17,27.78-112.44,12.58-31.83,22.54-30.19,38.07-16.19,1.64-40-11.49-90-25.27-155.09ZM97,149.77C76.08,152.62,60.44,169.35,59.79,165s14-28.33,35-31.28,40.25,16.4,40.9,20.78-17.83-7.55-38.72-4.71ZM197.7,248c-26,8.1-60.15-9.84-63.32-20s25.81-5.25,52-13.35,49.77-28.33,52.94-18.15S223.74,239.9,197.71,248Zm21-134.09c-19,9.08-28.87,29.75-30.84,25.71s4.81-31.29,23.84-40.36S255,102.64,257,106.68s-19.25-1.86-38.29,7.22Z"/><path class="cls-1" d="M403.88,267.24C321.2,236.73,306,151.3,279.19,219.45c-56.54,143.61-31.6,271.8,34.57,295s140-6.24,227.28-192.83c26.57-56.77-56.88-24.72-137.16-54.36ZM287.61,297.65c1-4.37,15.21,13.56,35.77,18.27s39.92-5.91,38.94-1.53-21.77,22-42.44,17.39S286.63,302,287.61,297.65ZM390.53,464.12c-3.93,9.84-25.92-12.25-51.18-22.42s-54.58-7.77-50.64-17.61,39.37-24.83,64.75-14.66,41,44.74,37.07,54.69Zm88.82-92c-2.3,3.82-27.46,14.32-45.72,3.72s-22.64-38.4-20.46-42.22,10.29,17.61,28.55,28.22,39.81,6.34,37.63,10.28Z"/></g></g></svg>