<svg xmlns="http://www.w3.org/2000/svg" viewBox="0 0 320.09 559.97"><g id="Layer_2" data-name="Layer 2"><g id="Layer_1-2" data-name="Layer 1"><path d="M297.62,369.6c6.39-19.37,13.45-38.69,17.93-58.52,11.2-49.55,2-94.86-30.58-134.85-12.32-15.12-23.57-31.13-36.06-46.14h0A300.67,300.67,0,0,1,201.08,51c-6.5-15.85-14.17-31.19-20.83-47a12.88,12.88,0,0,0-2.46-4h-8.86V436.07c-21.55-19-60.36-24-98.78-10.08-49.84,18-80,60.82-67.2,95.6s63.17,48.44,113,30.46,80-60.81,67.2-95.59c0-.62-.56-1.23-.84-1.85-.73-100.8-.28-201.6-.28-302.4V141.9c3.64,1.51,8.8,3.75,14.84,6.72h0a217.85,217.85,0,0,1,62,41.78c8.13,8.34,38.2,35.56,41.28,78.39h0a217.74,217.74,0,0,1-7.78,74.25c-3.08,11.2-7.62,21.84-11.2,32.87l8,5.88h0a3.63,3.63,0,0,0,.78-.57,35.58,35.58,0,0,0,7.73-11.64Z"/></g></g></svg>