<svg xmlns="http://www.w3.org/2000/svg" viewBox="0 0 504.02 386.88"><defs><style>.cls-1,.cls-2{fill:#ebf0ee;}.cls-1{fill-rule:evenodd;}</style></defs><g id="Layer_2" data-name="Layer 2"><g id="Layer_1-2" data-name="Layer 1"><g id="Layer_2-2" data-name="Layer 2"><g id="Layer_1-2-2" data-name="Layer 1-2"><path class="cls-1" d="M83.21,0c-18.54,0-33.6,17.59-33.6,39.2s15.06,39.2,33.6,39.2,33.6-17.53,33.6-39.2S101.75,0,83.21,0Z"/><path class="cls-2" d="M173.94,127.85a16.72,16.72,0,1,1,1.14,33.42h-.47c-23.8.56-43.23-7.28-59.19-18.76-3.64-2.69-4.43-1.57-5,2.35-.79,5.54-1.52,11.59-2.19,18H89.6a16.91,16.91,0,0,0-13.94,7.39L59.36,192a16.75,16.75,0,0,0-3.13,12.66l26.2,167.66a22.37,22.37,0,0,1-43.29-6.5c-3.36-56-3.64-139.61,1.51-199.64.34-3.52.51-3.86-.67-.22a170.71,170.71,0,0,0-6.55,31.31A16.77,16.77,0,1,1,.11,193.42c3.7-31.36,12.55-54.1,23-70.23C40.26,96.48,63,86.8,75.49,86.06c19.32-1.12,34.1,10.08,50.34,22.35,14.06,10.64,31,19.77,48.11,19.43Z"/><path class="cls-1" d="M390.1.45c18.59,0,33.6,17.53,33.6,39.2s-15,39.2-33.6,39.2-33.6-17.59-33.6-39.2S371.56.45,390.1.45Z"/><path class="cls-2" d="M469.05,281.57c2.91,26.88,3.64,54,3.64,82.88a22.4,22.4,0,1,1-44.8,0v0c0-10.41-.05-20.55-.33-30.47l20.21-129.36A16.75,16.75,0,0,0,444.64,192l-16.3-21.73a16.89,16.89,0,0,0-13.95-7.39H381.91c-2.63-10-6-18.37-10-24.53-7.28-12.54-14.84-16.07-32.53-18.31-21.45-2.69-49.29-11.53-61.21-30.91a16.79,16.79,0,0,1,28.61-17.58C332.91,114,453.81,55.84,501,123.71a16.79,16.79,0,1,1-27.55,19.21c-6.89-10-17.25-15.57-29.51-18.65-2.19-.56-3.81,1.34-2.8,4,15.56,41.78,23.4,111,27.94,153.27Z"/><path class="cls-2" d="M280,174.05H414.4a5.67,5.67,0,0,1,4.76,2.63l16.52,22a5.8,5.8,0,0,1,1,4.2l-28,179.2a5.6,5.6,0,0,1-5.49,4.76h-112a5.62,5.62,0,0,1-5.6-5.6L274.4,179.93a5.62,5.62,0,0,1,5.32-5.88Zm131.6,11.2H285.88l10.58,190.4h102l26.88-172.14Z"/><path class="cls-2" d="M224,174.05H89.6a5.62,5.62,0,0,0-4.76,2.63l-16.52,22a5.8,5.8,0,0,0-1,4.2l28,179.2a5.6,5.6,0,0,0,5.49,4.76h112a5.62,5.62,0,0,0,5.6-5.6l11.2-201.32a5.62,5.62,0,0,0-5.32-5.88ZM92.4,185.25H218.12l-10.59,190.4h-102L78.67,203.51l13.72-18.26Z"/><path class="cls-1" d="M348.77,211.85a23.8,23.8,0,1,1-23.8,23.8h0a23.78,23.78,0,0,1,23.76-23.8Z"/><path class="cls-1" d="M138.43,213.25H172a5.62,5.62,0,0,1,5.6,5.6v33.6a5.63,5.63,0,0,1-5.6,5.61H138.4a5.63,5.63,0,0,1-5.6-5.61v-33.6a5.62,5.62,0,0,1,5.6-5.6Z"/></g></g></g></g></svg>