<svg xmlns="http://www.w3.org/2000/svg" viewBox="0 0 504.57 498.44"><defs><style>.cls-1{fill:#ebf0ee;}</style></defs><g id="Layer_2" data-name="Layer 2"><g id="Layer_1-2" data-name="Layer 1"><g id="Layer_2-2" data-name="Layer 2"><g id="Layer_1-2-2" data-name="Layer 1-2"><path class="cls-1" d="M252,0C113.12,0,0,113.12,0,251.44c0,122.64,87.36,224,202.72,247,2.24-5,5-11.2,6.16-17.36-1.12-6.16-1.68-12.32-3.36-17.36-5.6-17.92-12.32-35.84-19-53.76-3.36-10.08-12.32-10.08-21.84-9-14.56,1.12-30.24,3.36-44.8,1.68C97.44,400.4,92.4,390.88,93,368.48c.56-6.16-1.12-15.12-5-19.6-7.84-7.84-5-13.44,0-20.16-1.12,0-2.8-.56-3.92-.56-.56-5.6-3.36-11.76-2.24-16.8,2.24-12.32,0-16.8-12.32-21.28a46.59,46.59,0,0,1-11.2-4.48C48.25,280,46,273.83,52.16,263.2c10-17.92,21.76-35.84,31.84-54.32,3.35-5.6,2.23-14.56,2.23-21.84,0-7.84-3.92-16.8-2.23-24.64,4.48-15.68,9.51-31.36,16.23-45.93C115.92,81.19,145,59.92,180.88,50.4c40.88-11.2,84-15.68,124.88-3.93C360.08,62.15,419.44,109.76,419.44,177c0,22.4-5,46.48-14.55,66.65-27.45,58.23-32.48,85.12-17.36,147.28,0,0,0,5.6,9.52,20.71,0,0,10.07,11.77,23.52,27.45,51-45.93,84-113.12,84-187.6C503.44,113.12,390.89,0,252,0Z"/><path class="cls-1" d="M231.84,150.08s-16.8,1.12-28.56,5.6c11.76,4.48,28.56,5.6,28.56,5.6,37.52,2.24,36.4-5.6,36.4-5.6S269.36,147.84,231.84,150.08Z"/><path class="cls-1" d="M113.68,155.68s-1.12,7.84,36.4,5.6c0,0,16.8-1.12,28.56-5.6-11.76-4.48-28.56-5.6-28.56-5.6C112.56,147.84,113.68,155.68,113.68,155.68Z"/><path class="cls-1" d="M191,78.4s-7.84-1.12-5.6,36.4c0,0,1.12,16.8,5.6,28.55,4.48-11.76,5.6-28.55,5.6-28.55C198.8,77.28,191,78.4,191,78.4Z"/><path class="cls-1" d="M191,233s7.84,1.12,5.6-36.4c0,0-1.12-16.8-5.6-28.56-4.48,11.76-5.6,28.56-5.6,28.56C183.12,234.08,191,233,191,233Z"/><path class="cls-1" d="M245.84,100.8s-5-6.16-29.68,21.84c0,0-11.2,12.88-16.24,24.08,11.2-5,24.08-16.24,24.08-16.24C252,105.84,245.84,100.8,245.84,100.8Z"/><path class="cls-1" d="M136.08,210.56s5,6.16,29.68-21.84c0,0,11.2-12.88,16.24-24.08-11.2,5-24.08,16.24-24.08,16.24C129.92,205.52,136.08,210.56,136.08,210.56Z"/><path class="cls-1" d="M136.08,100.8s-6.16,5,21.84,29.68c0,0,12.88,11.2,24.08,16.24-5-11.2-16.24-24.08-16.24-24.08C141.12,94.64,136.08,100.8,136.08,100.8Z"/><path class="cls-1" d="M245.84,210.56s6.16-5-21.84-29.68c0,0-12.88-11.2-24.08-16.24,5,11.2,16.24,24.08,16.24,24.08C240.8,216.72,245.84,210.56,245.84,210.56Z"/><path class="cls-1" d="M211.12,119.84c16.24-34.16,8.4-35.84,8.4-35.84S212.8,80.08,201,115.92c0,0-5,16.24-5,28.56C203.84,135,211.12,119.84,211.12,119.84Z"/><path class="cls-1" d="M170.24,191.52c-16.24,34.16-8.4,35.84-8.4,35.84s6.72,3.92,18.48-31.92c0,0,5-16.24,5-28.56-7.84,9.52-15.12,24.64-15.12,24.64Z"/><path class="cls-1" d="M150.64,145.6s16.24,5,28.56,5c-9-8.4-24.08-15.68-24.08-15.68-34.16-16.24-35.84-8.4-35.84-8.4s-4.48,7.28,31.36,19Z"/><path class="cls-1" d="M230.72,165.76s-16.24-5-28.56-5c9,8.4,24.08,15.68,24.08,15.68,34.16,16.24,35.84,8.4,35.84,8.4s4.48-7.28-31.36-19Z"/><path class="cls-1" d="M185.92,143.92c0-12.32-5.6-28.56-5.6-28.56-11.76-35.84-19-31.92-19-31.92s-7.84,2.24,8.4,35.84c.56.56,7.84,15.68,16.24,24.64Z"/><path class="cls-1" d="M195.44,167.44c0,12.32,5.6,28.56,5.6,28.56,11.76,35.84,19,31.92,19,31.92s7.84-2.24-8.4-35.84c0-.56-7.84-15.68-16.24-24.64Z"/><path class="cls-1" d="M179.2,160.16c-12.32,0-28.56,5.6-28.56,5.6-35.84,11.76-31.92,19-31.92,19s2.24,7.84,35.84-8.4c.56,0,15.68-7.29,24.64-16.24Z"/><path class="cls-1" d="M202.72,151.2c12.32,0,28.56-5.6,28.56-5.6,35.84-11.77,31.92-19,31.92-19s-2.8-7.84-36.4,8.4c0,0-15.12,7.28-24.08,16.24Z"/><path class="cls-1" d="M191,143.36a13.41,13.41,0,1,0,9,3.92A11.12,11.12,0,0,0,191,143.36Z"/><path class="cls-1" d="M339.92,240.8s-16.8.56-28.56,5c11.76,4.48,28.56,6.16,28.56,6.16,37.52,2.8,36.4-5,36.4-5S377.44,239.12,339.92,240.8Z"/><path class="cls-1" d="M221.76,244.16s-1.12,7.84,36.4,6.16c0,0,16.8-.56,28.56-5-11.77-4.48-28.56-6.16-28.56-6.16C220.64,235.76,221.76,244.16,221.76,244.16Z"/><path class="cls-1" d="M300.72,168s-7.84-1.12-6.16,36.4c0,0,.56,16.8,5,28.56,4.48-11.77,6.16-28.56,6.16-28.56C308.56,167.44,300.72,168,300.72,168Z"/><path class="cls-1" d="M297.36,323.12s7.84,1.12,6.16-36.4c0,0-.56-16.8-5-28.56-4.48,11.76-6.16,28.56-6.16,28.56C289.52,323.68,297.36,323.12,297.36,323.12Z"/><path class="cls-1" d="M354.48,192.08s-5-6.16-30.24,21.28c0,0-11.2,12.32-16.8,23.52,11.76-5,24.64-15.68,24.64-15.68C361.2,196.56,354.48,192.08,354.48,192.08Z"/><path class="cls-1" d="M243,299s5,6.16,30.24-21.28c0,0,11.2-12.32,16.8-23.52-11.76,5-24.64,15.68-24.64,15.68C236.88,294,243,299,243,299Z"/><path class="cls-1" d="M245.28,189.84s-6.16,5,21.28,30.24c0,0,12.32,11.2,23.52,16.8-5-11.76-15.68-24.64-15.68-24.64C250.32,183.68,245.28,189.84,245.28,189.84Z"/><path class="cls-1" d="M352.8,301.28s6.16-5-21.28-30.24c0,0-12.32-11.2-23.52-16.8,5,11.76,15.68,24.64,15.68,24.64C347.76,307.44,352.8,301.28,352.8,301.28Z"/><path class="cls-1" d="M319.76,210c16.8-33.6,9-35.84,9-35.84s-6.72-3.92-19.6,31.36c0,0-5.6,15.68-5.6,28.56,9-9,16.24-24.08,16.24-24.08Z"/><path class="cls-1" d="M277.76,281.12c-16.8,33.6-9,35.84-9,35.84s6.72,3.92,19.6-31.36c0,0,5.6-15.68,5.6-28.56-8.4,9-16.24,24.08-16.24,24.08Z"/><path class="cls-1" d="M258.72,234.64s15.68,5.6,28.56,5.6c-9-8.4-24.08-16.24-24.08-16.24-33.6-16.8-35.84-9-35.84-9s-3.92,7.28,31.36,19.6Z"/><path class="cls-1" d="M338.8,255.92s-15.68-5.6-28.56-5.6c9,8.39,24.08,16.23,24.08,16.23,33.6,16.81,35.84,9,35.84,9s3.92-6.72-31.36-19.6Z"/><path class="cls-1" d="M294.56,233.52c0-12.32-5-28.56-5-28.56C278.32,169.12,271,173,271,173s-7.84,1.68,7.84,35.84c0,.56,7.28,15.68,15.68,24.64Z"/><path class="cls-1" d="M303.52,257c0,12.32,5,28.56,5,28.56C319.72,321.4,327,317.48,327,317.48s7.84-1.68-7.84-35.84c-.56,0-7.28-15.12-15.68-24.64Z"/><path class="cls-1" d="M287.28,249.76c-12.32,0-28.56,5-28.56,5-35.84,11.2-31.92,18.48-31.92,18.48s1.68,7.84,35.84-7.84c0,0,15.12-7.28,24.64-15.68Z"/><path class="cls-1" d="M310.8,240.8c12.32,0,28.56-5,28.56-5,35.84-11.2,31.92-18.48,31.92-18.48s-1.68-7.84-35.84,7.84c-.56.56-15.68,7.28-24.64,15.68Z"/><path class="cls-1" d="M299,233a12.75,12.75,0,0,0-9,3.36,13.23,13.23,0,0,0-3.92,9,12.75,12.75,0,0,0,3.36,9,13.17,13.17,0,0,0,9,3.92,12.75,12.75,0,0,0,9-3.36,13.23,13.23,0,0,0,3.92-9,12.75,12.75,0,0,0-3.36-9A13.23,13.23,0,0,0,299,233Z"/><path class="cls-1" d="M337.12,118.16s-11.2.56-18.48,3.36c7.84,3.36,18.48,3.92,18.48,3.92,24.64,2.24,24.08-3.36,24.08-3.36S361.76,117,337.12,118.16Z"/><path class="cls-1" d="M259.84,120.4s-.56,5,24.08,3.92c0,0,11.2-.56,18.48-3.36-7.84-3.36-18.48-3.92-18.48-3.92C259.28,115.36,259.84,120.4,259.84,120.4Z"/><path class="cls-1" d="M311.36,70.56s-5-.56-3.92,24.08c0,0,.56,11.2,3.36,18.48,3.36-7.84,3.92-18.48,3.92-18.48C316.4,70,311.36,70.56,311.36,70.56Z"/><path class="cls-1" d="M309.12,171.92s5,.56,3.92-24.08c0,0-.56-11.2-3.36-18.48-3.36,7.84-3.92,18.48-3.92,18.48C304.08,172.48,309.12,171.92,309.12,171.92Z"/><path class="cls-1" d="M347.2,86.24s-3.36-4.48-19.6,14c0,0-7.28,8.4-10.64,15.68,7.28-3.36,16.24-10.08,16.24-10.08,17.92-16.24,14-19.6,14-19.6Z"/><path class="cls-1" d="M273.84,156.8s3.36,4.48,19.6-14c0,0,7.28-8.4,10.64-15.68-7.28,3.36-16.24,10.08-16.24,10.08-17.92,16.24-14,19.6-14,19.6Z"/><path class="cls-1" d="M275,84.56s-4.48,3.36,14,19.6c0,0,8.4,7.28,15.68,10.64C301.32,107,294.6,98.56,294.6,98.56,278.36,80.64,275,84.56,275,84.56Z"/><path class="cls-1" d="M345.52,157.92s4.48-3.36-14-19.6c0,0-8.4-7.29-15.68-10.65,3.36,7.84,10.08,16.24,10.08,16.24,16.24,17.93,19.6,14,19.6,14Z"/><path class="cls-1" d="M324.24,98c11.2-21.84,6.16-23.52,6.16-23.52s-4.48-2.8-12.88,20.72c0,0-3.36,10.64-3.92,18.48C319.2,108.08,324.24,98,324.24,98Z"/><path class="cls-1" d="M296.8,144.48c-11.2,21.84-6.16,23.52-6.16,23.52s4.48,2.8,12.88-20.72c0,0,3.36-10.64,3.92-18.48-6.16,6.16-10.64,15.68-10.64,15.68Z"/><path class="cls-1" d="M283.92,114.24s10.64,3.36,18.48,3.92c-6.16-5.6-15.68-10.64-15.68-10.64-21.84-11.2-23.52-6.16-23.52-6.16s-2.24,5,20.72,12.88Z"/><path class="cls-1" d="M336.56,128.24s-10.64-3.36-18.48-3.92c6.16,5.6,15.68,10.64,15.68,10.64,21.84,11.2,23.52,6.16,23.52,6.16s2.8-4.48-20.72-12.88Z"/><path class="cls-1" d="M307.44,113.68c0-8.4-3.36-18.48-3.36-18.48-7.28-23.52-11.76-21.28-11.76-21.28s-5,1.12,5,23.52c0,0,4.48,10.08,10.08,16.24Z"/><path class="cls-1" d="M313,128.8c0,8.4,3.36,18.48,3.36,18.48,7.28,23.52,11.76,21.28,11.76,21.28s5-1.12-5-23.52c.56,0-4.48-10.08-10.08-16.24Z"/><path class="cls-1" d="M303,124.32c-8.4,0-18.48,3.36-18.48,3.36C261,135,263.2,139.44,263.2,139.44s1.12,5,23.52-5c0,0,10.08-4.48,16.24-10.08Z"/><path class="cls-1" d="M318.08,118.16c8.4,0,18.48-3.36,18.48-3.36,23.52-7.28,21.28-11.76,21.28-11.76s-1.12-5-23.52,5c0,0-10.08,5-16.24,10.08Z"/><path class="cls-1" d="M310.8,113.12c-2.24,0-4.48.56-5.6,2.24a10.67,10.67,0,0,0-2.8,5.6c0,2.24.56,4.48,2.24,5.6a10.67,10.67,0,0,0,5.6,2.8c2.24,0,4.48-.56,5.6-2.24a10.67,10.67,0,0,0,2.8-5.6c0-2.24-.56-4.48-2.24-5.6C314.72,114.24,313,113.12,310.8,113.12Z"/></g></g></g></g></svg>